<svg xmlns:xlink="http://www.w3.org/1999/xlink" xmlns="http://www.w3.org/2000/svg" class="_2LoZB5t" width="16" height="16"><svg xmlns="http://www.w3.org/2000/svg" viewBox="0 0 16 16" fill="#FFFFFF"><path d="M15.164.326a1.135 1.135 0 010 1.573L9.233 8l5.931 6.1c.422.435.422 1.14 0 1.574a1.06 1.06 0 01-1.53 0L7.74 9.613l-5.893 6.061a1.06 1.06 0 01-1.436.087l-.095-.087a1.139 1.139 0 010-1.574L6.248 8 .316 1.9a1.139 1.139 0 010-1.574 1.06 1.06 0 011.53 0l5.894 6.06 5.894-6.06a1.06 1.06 0 011.53 0z" fill="#FFFFFF" fill-rule="evenodd"></path></svg></svg>
