<svg xmlns:xlink="http://www.w3.org/1999/xlink" xmlns="http://www.w3.org/2000/svg" class="_2LoZB5t" width="20" height="20"><svg xmlns="http://www.w3.org/2000/svg" viewBox="0 0 13 13" fill="#333333"><path fill="#333333" fill-rule="nonzero" d="M.597 6.53c0 .415.336.75.75.75h4.375c.07 0 .125.057.125.126v4.375c0 .414.336.75.75.75s.75-.336.75-.75V7.406c0-.07.056-.125.125-.125h4.375c.414 0 .75-.336.75-.75s-.336-.75-.75-.75H7.472c-.069 0-.125-.056-.125-.125V1.28c0-.414-.336-.75-.75-.75s-.75.336-.75.75v4.375c0 .069-.056.125-.125.125H1.347c-.414 0-.75.336-.75.75z"></path></svg></svg>
